<svg width="15" height="17" viewBox="0 0 15 17" fill="none" xmlns="http://www.w3.org/2000/svg">
<path d="M6.11682 1.59853C6.23635 1.3031 6.44138 1.0501 6.70564 0.871953C6.96989 0.693806 7.28133 0.598633 7.60002 0.598633C7.91872 0.598633 8.23015 0.693806 8.4944 0.871953C8.75866 1.0501 8.96369 1.3031 9.08322 1.59853C10.2662 1.92388 11.3097 2.62858 12.0534 3.6044C12.7971 4.58022 13.2 5.77321 13.2 7.00013V10.7577L14.6656 12.9561C14.746 13.0766 14.7922 13.2166 14.7992 13.3613C14.8062 13.506 14.7738 13.6498 14.7055 13.7775C14.6372 13.9052 14.5355 14.012 14.4112 14.0864C14.287 14.1608 14.1449 14.2001 14 14.2001H10.372C10.2757 14.8666 9.94247 15.4761 9.43338 15.9169C8.92429 16.3577 8.27343 16.6003 7.60002 16.6003C6.92661 16.6003 6.27575 16.3577 5.76666 15.9169C5.25757 15.4761 4.92434 14.8666 4.82802 14.2001H1.20002C1.05519 14.2001 0.913065 14.1608 0.788815 14.0864C0.664565 14.012 0.562851 13.9052 0.494523 13.7775C0.426195 13.6498 0.393818 13.506 0.400845 13.3613C0.407872 13.2166 0.454039 13.0766 0.534422 12.9561L2.00002 10.7577V7.00013C2.00002 4.42093 3.74402 2.24813 6.11682 1.59853ZM6.46882 14.2001C6.55144 14.4342 6.70465 14.637 6.90732 14.7804C7.10999 14.9238 7.35215 15.0008 7.60042 15.0008C7.84869 15.0008 8.09085 14.9238 8.29352 14.7804C8.49619 14.637 8.6494 14.4342 8.73202 14.2001H6.46802H6.46882ZM7.60002 3.00013C6.53916 3.00013 5.52174 3.42156 4.77159 4.17171C4.02145 4.92185 3.60002 5.93927 3.60002 7.00013V11.0001C3.60006 11.1582 3.55329 11.3127 3.46562 11.4441L2.69522 12.6001H12.504L11.7336 11.4441C11.6462 11.3126 11.5997 11.1581 11.6 11.0001V7.00013C11.6 5.93927 11.1786 4.92185 10.4284 4.17171C9.6783 3.42156 8.66089 3.00013 7.60002 3.00013Z" fill="white"/>
</svg>
